<svg height="256.32" viewBox="0 0 1043.87 256.32" width="1043.87" xmlns="http://www.w3.org/2000/svg" xmlns:xlink="http://www.w3.org/1999/xlink"><radialGradient id="a" cx="521.94" cy="2146.41" gradientTransform="matrix(1.2 0 0 .52 -104.12 -978.17)" gradientUnits="userSpaceOnUse" r="354.37"><stop offset="0" stop-color="#3c3449"/><stop offset="1" stop-color="#211830"/></radialGradient><radialGradient id="b" cx="107.2" cy="59.19" gradientTransform="matrix(1.2 0 0 1 -104.12 0)" gradientUnits="userSpaceOnUse" r="873.75"><stop offset=".21" stop-color="#9d5993"/><stop offset="1" stop-color="#413463"/></radialGradient><rect fill="url(#a)" height="256.32" rx="19.55" width="1043.87"/><path d="m1043.87 235.45v-43.36c-84.25-10.02-130.16-50.48-172.42-78.82-112.02-75.12-222.53-56.68-278.21 8.6-51.61 60.51-189.78 70.86-305.43 7.29-99.15-54.48-204.67-67.47-287.81 16v90.28c0 11.53 9.35 20.88 20.87 20.88h1002.13c11.53 0 20.87-9.35 20.87-20.87z" fill="url(#b)" opacity=".22"/><g fill="#fff"><path d="m448.76 117.99c0-15.8-11.67-25.28-30.15-25.28h-29.17v70.75h13.13v-20.66h18.72l14.59 20.66h14.1l-16.29-23.34c9.48-3.65 15.07-11.43 15.07-22.12zm-30.88 14.1h-15.32v-28.2h15.32c11.43 0 17.5 5.1 17.5 14.1s-5.84 14.1-17.5 14.1z"/><path d="m516.1 152.02c-3.16 1.46-6.81 2.19-10.45 2.19-14.59 0-25.28-10.21-25.28-24.8-.24-14.83 10.45-25.28 25.28-25.28 3.65 0 7.05.73 10.45 2.19 3.16 1.46 6.08 3.65 8.51 6.32l8.27-8.02c-6.56-7.78-16.53-11.91-27.96-11.91-21.64 0-37.92 15.32-37.92 36.47s16.29 36.47 37.92 36.47c11.67 0 21.64-4.13 28.2-11.91l-8.51-8.02c-2.43 2.67-5.35 4.86-8.51 6.32z"/><path d="m599.73 121.88h-36.71v-29.18h-13.13v70.75h13.13v-30.39h36.71v30.39h13.13v-70.75h-13.13z"/><path d="m637.17 92.7h13.13v70.75h-13.13z"/><path d="m705.73 92.7h-30.87v70.75h30.87c23.1 0 38.65-14.1 38.65-35.49s-15.8-35.25-38.65-35.25zm-.73 59.81h-17.26v-48.62h17.26c15.8 0 26.01 9.72 26.01 24.31s-10.21 24.31-26.01 24.31z"/><path d="m362.7 115.07c-8.27 7.78-19.93 9.24-30.87 10.45-8.02.97-17.02 2.67-22.12 9.48-4.62 6.08-3.16 14.83 1.7 20.18.97 1.46 4.13 4.13 4.62 3.89-4.38-6.08-4.38-15.8 1.95-20.66 6.56-5.35 15.32-5.11 23.34-7.05 4.62-.97 9.72-2.43 13.86-3.89-6.08 5.35-14.1 7.54-21.64 9.97-6.32 2.19-12.4 7.54-12.64 14.59-.24 4.86 2.19 10.94 7.29 12.4 13.61 3.16 28.44-2.43 36.71-13.37 9.24-11.67 9.97-29.17 1.7-41.81-.97 2.43-2.43 4.38-3.89 5.83z"/><path d="m357.11 112.39c3.89-1.7 6.81-6.81 3.16-10.21-1.7-1.22-4.38-4.13-2.67-.49.49 4.62-3.89 7.29-7.78 8.51-8.02 2.43-16.29 2.19-24.55 3.65-1.22 0-4.13.73-1.22-.73 7.54-3.65 17.26-3.16 23.82-9 3.4-2.67 1.94-8.27-1.7-9.72-4.62-1.94-9.72-1.94-14.59-1.46-14.59 1.7-27.47 12.88-30.88 26.98-.73 3.16-1.22 6.08-1.22 9.24s.97 10.21 1.95 10.7c.97-8.51 7.54-15.07 15.07-17.99 13.13-5.11 28.2-2.19 40.6-9.48z"/></g></svg>